# xmcd CD database file
#
# Track frame offsets:
#	150
#	21893
#	41875
#	63618
#
# Disc length: 1111 seconds
#
# Revision: 7
# Processed by: cddbd v1.5.1PL2 Copyright (c) Steve Scherf et al.
# Submitted via: CDex 1.51
#
DISCID=34045504
DTITLE=SMAP - Dear WOMAN
DYEAR=2006
DGENRE=JPop
TTITLE0=Dear WOMAN
TTITLE1=buzzer beater
TTITLE2=Dear WOMAN (back track)
TTITLE3=buzzer beater (back track)
EXTD=YEAR: 2006
EXTT0=
EXTT1=
EXTT2=
EXTT3=
PLAYORDER=
